<svg width="100" height="100" fill="none" xmlns="http://www.w3.org/2000/svg"><path d="M50 14c-19.87 0-36 16.13-36 36s16.13 36 36 36 36-16.13 36-36-16.13-36-36-36zm0 2c18.79 0 34 15.21 34 34S68.79 84 50 84 16 68.79 16 50s15.21-34 34-34zm0 3c-17.115 0-31 13.885-31 31 0 17.115 13.885 31 31 31 17.115 0 31-13.885 31-31 0-9.096-3.92-17.283-10.164-22.953a.5.5 0 10-.672.74C76.207 33.275 80 41.192 80 50c0 16.575-13.425 30-30 30S20 66.575 20 50s13.425-30 30-30c3.63 0 7.108.646 10.328 1.826a.499.499 0 00.626-.68.5.5 0 00-.282-.26A30.95 30.95 0 0050 19zm13.48 3.14a.5.5 0 00-.203.952c.67.331 1.328.687 1.97 1.066a.501.501 0 10.507-.861 31.274 31.274 0 00-2.031-1.102.5.5 0 00-.242-.054zm4.028 2.372c-.017 0-.034 0-.051.002a.5.5 0 00-.244.912c.333.233.66.474.982.72a.501.501 0 00.61-.794 30.146 30.146 0 00-1.018-.745.5.5 0 00-.28-.095zM64.375 34c-.899 0-1.774.413-1.775.414L29.75 47.713a3.61 3.61 0 00-.809.404c-.425.283-.941.774-.941 1.51 0 .786.48 1.338.904 1.642.424.305.846.428.846.428l.012.002 7.601 2.063 1.883 5.263a2205.454 2205.454 0 001.832 5.11l.137.379c.033.091.04.115.064.175.202.493.384.778.559.963.087.093.176.16.262.205.02.012.04.017.06.026a.313.313 0 00.01.006l.01.004c.014.005.029.013.043.017.017.005.026.006.047.01.16.058.323.084.472.074.485-.02.824-.287.824-.287a.505.505 0 00.032-.027l4.953-4.577 7.488 6.336s.184.166.467.3c.283.133.696.261 1.22.261.974 0 1.631-.435 1.98-.877.347-.442.429-.908.429-.908v.008l2.898-15.026c.726-3.765 1.454-7.537 2.002-10.387l.666-3.464.19-.994.052-.276c.013-.066.014-.061.024-.133A3.28 3.28 0 0066 35.5c0-.446-.197-.854-.506-1.115A1.716 1.716 0 0064.375 34zm0 1c.213 0 .377.064.475.147.097.082.15.174.15.353 0 .088-.009.2-.023.307.007-.055-.006.024-.018.087l-.05.272-.19.992-.664 3.463c-.548 2.849-1.276 6.622-2.002 10.387l-2.9 15.025-.003.008s-.038.219-.23.463c-.193.244-.494.496-1.193.496a1.83 1.83 0 01-.793-.164c-.168-.08-.213-.127-.213-.127a.487.487 0 00-.018-.018L44.62 56.465l14.922-14.192-.039.034a1.29 1.29 0 00.498-1.022v-.002a1.296 1.296 0 00-.26-.771A1.265 1.265 0 0058.738 40h-.002a1.277 1.277 0 00-.78.268l.04-.03-20.25 12.534.252.142a.5.5 0 00-.117-.047l-7.854-2.13-.004-.003a2.041 2.041 0 01-.535-.275c-.272-.196-.488-.44-.488-.832 0-.25.202-.482.496-.678.294-.195.596-.297.596-.297a.484.484 0 00.033-.011l32.863-13.305.014-.006s.813-.33 1.373-.33zm-5.643 6c.077 0 .149.03.208.11l.001.001a.294.294 0 01-.05.405.495.495 0 00-.04.033L43.526 56.125a.5.5 0 00-.148.283h-.004l-1.266 7.635-.09-.246-.462-1.29c-.378-1.053-.873-2.439-1.367-3.82l-1.833-5.119 20.168-12.48a.518.518 0 00.041-.03.267.267 0 01.168-.058zM44.217 57.435l3.564 3.018-4.799 4.434 1.235-7.452z" fill="#000"/></svg>