<svg width="100" height="100" fill="none" xmlns="http://www.w3.org/2000/svg"><path d="M50 15c-19.318 0-35 15.682-35 35 0 6.13 1.607 11.885 4.379 16.897l-4.307 15.568c-.4 1.449 1.013 2.863 2.463 2.46l15.57-4.306C38.118 83.391 43.87 85 50 85c19.318 0 35-15.682 35-35 0-19.318-15.682-35-35-35zm0 2c18.238 0 33 14.762 33 33S68.238 83 50 83a32.82 32.82 0 01-16.305-4.314 1 1 0 00-.761-.094L17 82.998l4.408-15.932a1 1 0 00-.096-.761A32.827 32.827 0 0117 50c0-18.238 14.762-33 33-33zm0 5c-15.458 0-28 12.542-28 28 0 5.882 1.836 11.33 4.936 15.836l-2.528 9.14a.5.5 0 00.615.616l9.141-2.528C38.67 76.164 44.118 78 50 78c15.458 0 28-12.542 28-28 0-7.7-3.111-14.678-8.144-19.74a.5.5 0 10-.712.705C74 35.847 77 42.57 77 50c0 14.918-12.082 27-27 27a26.858 26.858 0 01-15.478-4.883.5.5 0 00-.42-.072l-8.495 2.35 2.35-8.495a.499.499 0 00-.072-.42A26.863 26.863 0 0123 50c0-14.918 12.082-27 27-27 2.554 0 5.02.363 7.363 1.025a.501.501 0 00.274-.962A28.002 28.002 0 0050 22zm10.496 2.078a.5.5 0 00-.187.963 27.04 27.04 0 012.945 1.438.499.499 0 00.746-.568.5.5 0 00-.254-.302 28.062 28.062 0 00-3.055-1.492.5.5 0 00-.195-.039zm5.006 2.703a.501.501 0 00-.283.916c.677.463 1.333.955 1.963 1.475a.5.5 0 00.636-.772 28.168 28.168 0 00-2.037-1.527.501.501 0 00-.279-.092zm-26.996 7.227c-.66 0-1.682.252-2.528 1.191-.707.774-2.98 2.975-2.98 7.198 0 4.283 3.025 8.267 3.414 8.798l.002.004.002.002.36.533a41 41 0 003.664 4.676c2.416 2.658 5.83 5.676 10.06 7.367v.002c3.45 1.377 5.55 1.939 7.004 2.137 1.454.198 2.27.018 2.967-.045h.002c.914-.087 2.122-.615 3.273-1.369 1.151-.754 2.227-1.721 2.633-2.877.352-1 .53-1.928.594-2.666a6.06 6.06 0 00.013-.959c-.02-.268-.033-.464-.17-.7h-.002c-.177-.303-.444-.478-.736-.64-.29-.161-.628-.314-1.025-.515h-.002c-.413-.211-1.608-.81-2.803-1.393-1.195-.584-2.332-1.134-2.799-1.307h-.002c-.383-.14-.767-.281-1.217-.228-.449.053-.877.352-1.197.836-.489.74-2.07 2.635-2.533 3.17v.002h-.002c-.19.22-.301.276-.433.293-.133.016-.36-.024-.723-.206l.004.004c-.473-.24-1.277-.537-2.39-1.14a20.612 20.612 0 01-4.026-2.87c-2.345-2.117-3.96-4.768-4.422-5.572v-.002c-.186-.32-.166-.438-.117-.57.047-.13.192-.302.39-.504l.004-.004c.416-.414.857-1.007 1.248-1.469l.002-.001v-.002c.44-.528.607-.931.873-1.465l.002-.002v-.002c.346-.71.164-1.407-.066-1.879a37.842 37.842 0 01-.358-.87l-.681-1.696c-.51-1.272-1.083-2.692-1.452-3.522-.33-.746-.705-1.198-1.13-1.447-.424-.248-.845-.262-1.137-.272h-.004c-.49-.02-1.035-.02-1.576-.02zm0 1c.542 0 1.078 0 1.537.02h.004c.29.01.477.02.67.134.193.113.444.36.723.988v.002c.353.795.928 2.219 1.437 3.489l.682 1.697c.187.466.31.773.384.93v.002l.002.002c.173.354.255.616.067 1.003-.28.561-.383.833-.744 1.266l.004-.002c-.422.498-.876 1.093-1.196 1.41l-.002.002-.002.002c-.206.21-.475.468-.62.867-.147.4-.099.915.19 1.414.49.85 2.137 3.574 4.618 5.815a21.65 21.65 0 004.218 3.006c1.171.634 2.078.98 2.415 1.152h.002l.002.002c.451.225.866.353 1.29.3.424-.052.783-.302 1.067-.63.486-.561 2.022-2.378 2.615-3.276.221-.334.334-.377.477-.394.142-.017.398.044.758.176.283.105 1.516.685 2.705 1.265 1.19.581 2.392 1.183 2.789 1.385h.002c.418.212.759.369.992.498.233.13.335.229.36.27-.037-.063.023.076.038.273.015.198.012.472-.015.797-.056.65-.217 1.504-.54 2.42-.269.767-1.187 1.686-2.236 2.373-1.048.687-2.244 1.154-2.82 1.209-.787.072-1.411.23-2.74.049-1.33-.181-3.36-.715-6.768-2.074-4.02-1.607-7.337-4.523-9.691-7.112a40.11 40.11 0 01-3.577-4.562c-.195-.29-.3-.46-.388-.576-.418-.57-3.217-4.405-3.217-8.203 0-3.878 1.928-5.66 2.719-6.524v-.002h.002c.637-.71 1.378-.863 1.787-.863z" fill="#000"/></svg>