<svg width="32" height="32" fill="none" xmlns="http://www.w3.org/2000/svg"><g clip-path="url(#clip0_659_557)" fill="#000" fill-opacity=".5"><path d="M16 10.666a5.333 5.333 0 100 10.667 5.333 5.333 0 000-10.667z"/><path fill-rule="evenodd" clip-rule="evenodd" d="M7.418 1.367a77.903 77.903 0 0117.165 0c3.117.348 5.629 2.801 5.995 5.929a74.951 74.951 0 010 17.411c-.366 3.128-2.878 5.581-5.993 5.93a77.904 77.904 0 01-17.167 0c-3.116-.349-5.629-2.802-5.995-5.928a74.948 74.948 0 010-17.413c.366-3.128 2.879-5.581 5.995-5.93zm16.788 4.788a1.641 1.641 0 100 3.283 1.641 1.641 0 000-3.283zm-16 9.846a7.795 7.795 0 1115.589 0 7.795 7.795 0 01-15.59 0z"/></g><defs><clipPath id="clip0_659_557"><path fill="#fff" d="M0 0h32v32H0z"/></clipPath></defs></svg>