<svg width="32" height="32" fill="none" xmlns="http://www.w3.org/2000/svg"><g clip-path="url(#clip0_659_555)"><path d="M16 .5C7.437.5.5 7.438.5 16c0 8.562 6.938 15.5 15.5 15.5 8.563 0 15.5-6.938 15.5-15.5C31.5 7.438 24.562.5 16 .5zm7.613 10.619l-2.544 11.988c-.188.85-.694 1.056-1.4.656l-3.875-2.856-1.869 1.8c-.206.206-.381.381-.781.381l.275-3.944 7.181-6.488c.313-.275-.069-.431-.482-.156l-8.875 5.587-3.825-1.194c-.831-.262-.85-.831.175-1.231l14.944-5.763c.694-.25 1.3.169 1.075 1.219l.001.001z" fill="#000" fill-opacity=".5"/></g><defs><clipPath id="clip0_659_555"><path fill="#fff" d="M0 0h32v32H0z"/></clipPath></defs></svg>