<svg width="31" height="31" fill="none" xmlns="http://www.w3.org/2000/svg"><g clip-path="url(#clip0_659_553)"><path d="M28.094 0H2.906A2.915 2.915 0 000 2.906v25.188A2.915 2.915 0 002.906 31h25.188A2.915 2.915 0 0031 28.094V2.906A2.915 2.915 0 0028.094 0zm-2.986 21.7l-2.835.043s-.612.122-1.41-.43c-1.06-.727-2.06-2.622-2.84-2.374-.787.248-.764 1.95-.764 1.95s.006.363-.176.555c-.194.211-.581.254-.581.254h-1.265s-2.798.17-5.263-2.399c-2.689-2.797-5.06-8.348-5.06-8.348s-.14-.365.011-.539c.169-.2.624-.211.624-.211l3.034-.018s.285.049.49.2c.17.122.26.357.26.357s.49 1.242 1.14 2.361c1.264 2.186 1.857 2.664 2.287 2.434.624-.34.436-3.094.436-3.094s.012-1-.314-1.442c-.253-.345-.732-.447-.937-.473-.17-.025.108-.418.472-.598.545-.268 1.508-.285 2.647-.273.884.005 1.145.065 1.49.145 1.048.254.69 1.228.69 3.567 0 .752-.134 1.804.405 2.148.23.152.798.024 2.222-2.39.672-1.145 1.18-2.488 1.18-2.488s.108-.242.279-.345c.176-.103.413-.072.413-.072l3.19-.017s.958-.114 1.115.322c.163.453-.357 1.513-1.659 3.25-2.137 2.853-2.379 2.585-.598 4.232 1.695 1.575 2.046 2.343 2.108 2.44.69 1.162-.787 1.253-.787 1.253h-.004z" fill="#000" fill-opacity=".5"/></g><defs><clipPath id="clip0_659_553"><path fill="#fff" d="M0 0h31v31H0z"/></clipPath></defs></svg>